<?xml version="1.0" encoding="utf-8"?>
<!-- Generator: Adobe Illustrator 19.0.0, SVG Export Plug-In . SVG Version: 6.00 Build 0)  -->
<svg version="1.1" id="Layer_1" xmlns="http://www.w3.org/2000/svg" xmlns:xlink="http://www.w3.org/1999/xlink" x="0px" y="0px"
	 viewBox="-211.4 372.3 164 49.7" style="enable-background:new -211.4 372.3 164 49.7;" xml:space="preserve">
<style type="text/css">
	.st0{fill:#FFFFFF;}
</style>
<path id="XMLID_3_" class="st0" d="M-180.6,421h-30.8v-47.7h9.5v38.9h21.3V421z"/>
<path id="XMLID_5_" class="st0" d="M-177.4,397.1c0-3.9,0.5-7.4,1.4-10.5c0.9-3.1,2.2-5.7,4-7.8c1.8-2.1,3.9-3.7,6.5-4.8
	c2.6-1.1,5.5-1.7,8.7-1.7c3.5,0,6.5,0.6,9.1,1.8c2.5,1.2,4.7,2.9,6.5,5.1c1.8,2.2,3,4.8,3.9,7.8c0.8,3,1.3,6.4,1.3,10.1
	c0,3.9-0.5,7.4-1.4,10.5c-0.9,3.1-2.3,5.7-4.1,7.8c-1.8,2.1-3.9,3.7-6.6,4.8c-2.5,1.1-5.4,1.7-8.6,1.7c-3.5,0-6.5-0.6-9.1-1.8
	c-2.6-1.2-4.8-2.9-6.5-5.1c-1.7-2.2-3-4.8-3.8-7.8C-177,404.2-177.4,400.8-177.4,397.1z M-167.4,397.1c0,2.4,0.2,4.5,0.7,6.5
	c0.5,2,1,3.6,1.9,5.1c0.8,1.4,2,2.5,3.3,3.3c1.3,0.8,2.9,1.2,4.8,1.2c3.4,0,6-1.2,7.9-3.7s2.8-6.6,2.8-12.3c0-2.3-0.2-4.4-0.6-6.3
	c-0.4-2-1-3.7-1.9-5.1s-2-2.5-3.3-3.3c-1.3-0.8-3-1.2-4.9-1.2c-3.3,0-5.9,1.3-7.8,3.8C-166.5,387.5-167.4,391.6-167.4,397.1z"/>
<path id="XMLID_8_" class="st0" d="M-112.4,395.9h18.3v21.4c-0.9,0.8-2.1,1.5-3.2,2.1c-1.2,0.6-2.4,1-3.7,1.4
	c-1.3,0.4-2.6,0.7-4,0.9c-1.4,0.2-2.7,0.3-4,0.3c-3.1,0-5.9-0.5-8.6-1.4c-2.6-1-5-2.4-6.9-4.5c-2-2-3.6-4.6-4.7-7.7
	s-1.7-6.9-1.7-11.2c0-4.5,0.7-8.3,2.1-11.5c1.4-3.2,3.2-5.7,5.3-7.7c2.2-2,4.7-3.4,7.3-4.3c2.7-0.9,5.4-1.3,8.1-1.3
	c2.8,0,5.2,0.2,7.3,0.6c2.2,0.4,3.7,0.9,5,1.3l-2,8.4c-1.1-0.4-2.4-0.8-3.9-1c-1.4-0.3-3.3-0.4-5.4-0.4c-2,0-3.8,0.3-5.5,0.9
	c-1.7,0.6-3.1,1.5-4.3,2.8c-1.2,1.3-2.2,2.9-2.9,5c-0.7,2-1,4.5-1,7.4c0,2.8,0.4,5.2,1,7.2c0.7,2,1.6,3.7,2.8,4.9
	c1.2,1.3,2.5,2.2,4,2.8c1.5,0.6,3.2,0.9,4.9,0.9c1.1,0,2.3-0.1,3.5-0.4c1.2-0.3,2.2-0.7,3-1.3v-8.3l-10.6-1.1L-112.4,395.9
	L-112.4,395.9z"/>
<path id="XMLID_10_" class="st0" d="M-88.8,397.1c0-3.9,0.5-7.4,1.4-10.5c0.9-3.1,2.2-5.7,4-7.8c1.8-2.1,3.9-3.7,6.5-4.8
	c2.5-1.1,5.4-1.7,8.7-1.7c3.5,0,6.5,0.6,9.1,1.8c2.6,1.2,4.8,2.9,6.5,5.1c1.7,2.2,3,4.8,3.9,7.8c0.8,3,1.3,6.4,1.3,10.1
	c0,3.9-0.5,7.4-1.4,10.5c-0.9,3.1-2.3,5.7-4.1,7.8s-3.9,3.7-6.6,4.8c-2.5,1.1-5.4,1.7-8.6,1.7c-3.5,0-6.5-0.6-9.1-1.8
	c-2.6-1.2-4.8-2.9-6.5-5.1c-1.7-2.2-3-4.8-3.8-7.8C-88.3,404.2-88.8,400.8-88.8,397.1z M-78.8,397.1c0,2.4,0.2,4.5,0.7,6.5
	c0.5,2,1,3.6,1.9,5.1c0.8,1.4,2,2.5,3.3,3.3c1.3,0.8,2.9,1.2,4.8,1.2c3.4,0,6-1.2,7.9-3.7s2.8-6.6,2.8-12.3c0-2.3-0.2-4.4-0.6-6.3
	c-0.4-2-1-3.7-1.9-5.1c-0.8-1.4-2-2.5-3.3-3.3c-1.3-0.8-3-1.2-4.9-1.2c-3.3,0-5.9,1.3-7.8,3.8C-77.8,387.5-78.8,391.6-78.8,397.1z"
	/>
</svg>
