<svg xmlns="http://www.w3.org/2000/svg" xmlns:xlink="http://www.w3.org/1999/xlink" viewBox="0 0 99 95.9"><style>.st0{display:none}.st1{display:inline}.st2{clip-path:url(#SVGID_2_)}.st3{fill:#f4f6f0}.st4{stroke:#c8c8e5;stroke-miterlimit:10}.st4,.st5{fill:none}.st6{fill:#4b4b4b}.st7{fill:#be0909}</style><g id="Background" class="st0"><g class="st1"><defs><path id="SVGID_1_" d="M-424.9-54.1h800v800h-800z"/></defs><clipPath id="SVGID_2_"><use overflow="visible" xlink:href="#SVGID_1_"/></clipPath><g class="st2"><path d="M-424.9-54.1h800v800h-800z" class="st3"/><path d="M-649.5-48.8h1142m-1142 34.7h1142m-1142 34.8h1142m-1142 34.7h1142m-1142 34.8h1142m-1142 34.7h1142m-1142 34.8h1142m-1142 34.7h1142m-1142 34.8h1142m-1142 34.7h1142m-1142 34.8h1142m-1142 34.7h1142m-1142 34.8h1142m-1142 34.7h1142m-1142 34.8h1142m-1142 34.7h1142m-1142 34.8h1142m-1142 34.7h1142m-1142 34.8h1142m-1142 34.7h1142m-1142 34.8h1142m-1142 34.7h1142m-1142 34.8h1142m-1142 34.7h1142m-1142 34.8h1142m-988 154v-1142m34.7 1142v-1142m34.8 1142v-1142m34.7 1142v-1142m34.8 1142v-1142m34.7 1142v-1142m34.8 1142v-1142m34.7 1142v-1142m34.8 1142v-1142m34.7 1142v-1142m34.8 1142v-1142m34.7 1142v-1142m34.8 1142v-1142m34.7 1142v-1142M-9 939.2v-1142m34.7 1142v-1142m34.8 1142v-1142m34.7 1142v-1142m34.8 1142v-1142m34.7 1142v-1142m34.8 1142v-1142m34.7 1142v-1142m34.8 1142v-1142m34.7 1142v-1142m34.8 1142v-1142" class="st4"/><path d="M-424.9-54.1h800v800h-800z" class="st5"/></g></g><g class="st1"><path d="M-138.5 720.1v-.3c-.3.4-.7.7-1 1-.3.3-.7.4-1.1.6-.4.1-.8.2-1.3.2-.6 0-1.2-.1-1.7-.4-.5-.3-1-.6-1.4-1.1-.4-.5-.7-1.1-.9-1.7-.2-.7-.3-1.4-.3-2.1 0-1.6.4-2.9 1.2-3.8.8-.9 1.8-1.4 3.1-1.4.7 0 1.4.1 1.9.4.5.3 1 .7 1.5 1.2v-3.8c0-.5.1-.9.3-1.2.2-.3.5-.4.9-.4s.7.1.9.4c.2.3.3.6.3 1.1v11.4c0 .5-.1.9-.3 1.1-.2.2-.5.4-.9.4s-.6-.1-.9-.4c-.1-.3-.3-.7-.3-1.2zm-5.1-3.8c0 .7.1 1.3.3 1.8.2.5.5.9.9 1.1.4.3.8.4 1.2.4.5 0 .9-.1 1.2-.4.4-.2.7-.6.9-1.1.2-.5.3-1.1.3-1.8s-.1-1.3-.3-1.8c-.2-.5-.5-.9-.9-1.1-.4-.3-.8-.4-1.3-.4s-.9.1-1.3.4c-.4.3-.7.7-.9 1.2 0 .5-.1 1.1-.1 1.7zm16.6.7h-5.1c0 .6.1 1.1.4 1.6.2.5.5.8.9 1 .4.2.8.3 1.3.3.3 0 .6 0 .9-.1.3-.1.5-.2.7-.3.2-.2.5-.3.7-.5.2-.2.5-.4.8-.7.1-.1.3-.2.6-.2s.5.1.6.2c.2.1.2.4.2.6 0 .2-.1.5-.3.8-.2.3-.5.6-.8.9-.4.3-.8.5-1.4.7-.6.2-1.2.3-1.9.3-1.7 0-3-.5-3.9-1.4-.9-.9-1.4-2.2-1.4-3.9 0-.8.1-1.5.3-2.1.2-.7.6-1.2 1-1.7s1-.8 1.6-1.1c.6-.3 1.3-.4 2.1-.4 1 0 1.9.2 2.6.6.7.4 1.3 1 1.6 1.7.4.7.5 1.4.5 2.1 0 .7-.2 1.1-.6 1.3-.2.2-.7.3-1.4.3zm-5.1-1.5h4.7c-.1-.9-.3-1.6-.7-2-.4-.4-1-.7-1.6-.7-.6 0-1.2.2-1.6.7-.4.5-.7 1.2-.8 2zm16.9 2.7c0 .7-.2 1.3-.5 1.8s-.9.9-1.5 1.2c-.7.3-1.5.4-2.5.4-.9 0-1.7-.1-2.4-.4-.7-.3-1.2-.6-1.5-1.1-.3-.4-.5-.9-.5-1.3 0-.3.1-.5.3-.7.2-.2.5-.3.8-.3.3 0 .5.1.6.2.1.1.3.3.4.6.3.5.6.8 1 1 .4.2.9.3 1.5.3.5 0 .9-.1 1.3-.3.3-.2.5-.5.5-.8 0-.5-.2-.8-.5-1-.3-.2-.9-.4-1.7-.6-.9-.2-1.6-.5-2.2-.7-.6-.2-1-.6-1.3-1-.3-.4-.5-.9-.5-1.5 0-.5.2-1 .5-1.5s.8-.8 1.4-1.1c.6-.3 1.3-.4 2.2-.4.7 0 1.3.1 1.8.2s1 .3 1.3.6c.4.2.6.5.8.8.2.3.3.6.3.8 0 .3-.1.5-.3.7-.2.2-.5.3-.9.3-.3 0-.5-.1-.7-.2-.2-.2-.4-.4-.6-.7-.2-.3-.4-.5-.7-.6-.3-.2-.6-.2-1.1-.2-.5 0-.9.1-1.2.3-.3.2-.5.4-.5.7 0 .3.1.5.3.7.2.2.5.3.9.4.4.1.9.3 1.6.4.8.2 1.5.4 2 .7.5.3.9.6 1.2 1 .3.4.4.9.4 1.3zm2.6-8.3c-.4 0-.7-.1-.9-.3-.3-.2-.4-.5-.4-.9s.1-.7.4-.9c.3-.2.6-.4.9-.4.3 0 .6.1.9.3.3.2.4.5.4.9s-.1.7-.4.9c-.2.3-.5.4-.9.4zm1.3 2.7v7.5c0 .5-.1.9-.4 1.2-.2.3-.6.4-.9.4-.4 0-.7-.1-.9-.4-.2-.3-.4-.7-.4-1.2v-7.4c0-.5.1-.9.4-1.2.2-.3.5-.4.9-.4s.7.1.9.4c.3.2.4.6.4 1.1zm11.4.4v7.5c0 .9-.1 1.6-.3 2.2-.2.6-.5 1.1-.9 1.5-.4.4-.9.7-1.6.9-.7.2-1.5.3-2.4.3-.9 0-1.7-.1-2.4-.4-.7-.3-1.2-.6-1.6-1-.4-.4-.6-.8-.6-1.2 0-.3.1-.6.3-.8.2-.2.5-.3.8-.3.4 0 .7.2 1 .5.1.2.3.3.4.5.1.2.3.3.5.4.2.1.4.2.7.3.3.1.5.1.9.1.7 0 1.2-.1 1.6-.3.4-.2.6-.4.8-.8.1-.3.2-.7.3-1.1s0-1 .1-1.8c-.4.6-.9 1-1.4 1.3-.5.3-1.1.4-1.9.4-.9 0-1.6-.2-2.3-.7-.6-.4-1.1-1.1-1.5-1.9-.3-.8-.5-1.7-.5-2.8 0-.8.1-1.5.3-2.1.2-.6.5-1.2.9-1.6.4-.4.8-.8 1.4-1 .5-.2 1.1-.3 1.7-.3.7 0 1.4.1 1.9.4.5.3 1 .7 1.5 1.3v-.4c0-.4.1-.8.3-1 .2-.2.5-.4.9-.4.5 0 .8.2 1 .5 0 .7.1 1.2.1 1.8zm-7.5 3.3c0 1.1.2 1.8.7 2.4.5.5 1.1.8 1.8.8.4 0 .8-.1 1.2-.3.4-.2.7-.6.9-1 .2-.5.4-1 .4-1.7 0-1.1-.2-1.9-.7-2.5-.5-.6-1.1-.9-1.8-.9s-1.3.3-1.8.8-.7 1.3-.7 2.4zm11.6-3.8v.3c.5-.6 1-1 1.5-1.3.5-.3 1.2-.4 1.9-.4s1.3.1 1.8.4c.5.3.9.7 1.2 1.3.2.3.3.7.3 1 .1.4.1.8.1 1.4v4.8c0 .5-.1.9-.4 1.2-.2.3-.5.4-.9.4s-.7-.1-.9-.4c-.2-.3-.4-.7-.4-1.2v-4.3c0-.9-.1-1.5-.4-2-.2-.5-.7-.7-1.4-.7-.5 0-.9.1-1.3.4-.4.3-.7.7-.8 1.1-.1.4-.2 1.1-.2 2.2v3.2c0 .5-.1.9-.4 1.2-.2.3-.6.4-.9.4-.4 0-.7-.1-.9-.4-.2-.3-.4-.7-.4-1.2v-7.5c0-.5.1-.9.3-1.1.2-.2.5-.4.9-.4.2 0 .4.1.6.2.2.1.3.3.4.5.3.3.3.6.3.9zM-80 717h-5.1c0 .6.1 1.1.4 1.6.2.5.5.8.9 1 .4.2.8.3 1.3.3.3 0 .6 0 .9-.1.3-.1.5-.2.7-.3.2-.2.5-.3.7-.5.2-.2.5-.4.8-.7.1-.1.3-.2.6-.2s.5.1.6.2c.2.1.2.4.2.6 0 .2-.1.5-.3.8-.2.3-.5.6-.8.9-.4.3-.8.5-1.4.7-.6.2-1.2.3-1.9.3-1.7 0-3-.5-3.9-1.4-.9-.9-1.4-2.2-1.4-3.9 0-.8.1-1.5.3-2.1.2-.7.6-1.2 1-1.7s1-.8 1.6-1.1c.6-.3 1.3-.4 2.1-.4 1 0 1.9.2 2.6.6.7.4 1.3 1 1.6 1.7.4.7.5 1.4.5 2.1 0 .7-.2 1.1-.6 1.3-.2.2-.7.3-1.4.3zm-5.1-1.5h4.7c-.1-.9-.3-1.6-.7-2-.4-.4-1-.7-1.6-.7-.6 0-1.2.2-1.6.7-.5.5-.7 1.2-.8 2zm15.7 4.6v-.3c-.3.4-.7.7-1 1-.3.3-.7.4-1.1.6-.4.1-.8.2-1.3.2-.6 0-1.2-.1-1.7-.4-.5-.3-1-.6-1.4-1.1-.4-.5-.7-1.1-.9-1.7-.2-.7-.3-1.4-.3-2.1 0-1.6.4-2.9 1.2-3.8.8-.9 1.8-1.4 3.1-1.4.7 0 1.4.1 1.9.4.5.3 1 .7 1.5 1.2v-3.8c0-.5.1-.9.3-1.2.2-.3.5-.4.9-.4s.7.1.9.4c.2.3.3.6.3 1.1v11.4c0 .5-.1.9-.3 1.1-.2.2-.5.4-.9.4s-.6-.1-.9-.4c-.2-.3-.3-.7-.3-1.2zm-5.1-3.8c0 .7.1 1.3.3 1.8.2.5.5.9.9 1.1.4.3.8.4 1.2.4.5 0 .9-.1 1.2-.4.4-.2.7-.6.9-1.1.2-.5.3-1.1.3-1.8s-.1-1.3-.3-1.8c-.2-.5-.5-.9-.9-1.1-.4-.3-.8-.4-1.3-.4s-.9.1-1.3.4c-.4.3-.7.7-.9 1.2 0 .5-.1 1.1-.1 1.7zm15.6-7.6v4c.5-.5 1-.9 1.5-1.2.5-.3 1.1-.4 1.9-.4.9 0 1.6.2 2.3.6.6.4 1.2 1 1.5 1.8.4.8.5 1.7.5 2.8 0 .8-.1 1.5-.3 2.2-.2.7-.5 1.2-.9 1.7s-.8.9-1.4 1.1c-.5.3-1.1.4-1.8.4-.4 0-.8 0-1.1-.1-.4-.1-.7-.2-.9-.4-.2-.2-.5-.3-.6-.5l-.7-.7v.3c0 .5-.1.9-.4 1.1-.2.3-.5.4-.9.4s-.7-.1-.9-.4c-.2-.3-.3-.6-.3-1.1V709c0-.5.1-.9.3-1.2.2-.3.5-.4.9-.4s.7.1.9.4c.3.1.4.4.4.9zm.2 7.7c0 1 .2 1.8.7 2.4.5.6 1.1.8 1.9.8.7 0 1.2-.3 1.7-.9.5-.6.7-1.4.7-2.4 0-.7-.1-1.3-.3-1.8-.2-.5-.5-.9-.8-1.1-.4-.3-.8-.4-1.3-.4s-.9.1-1.3.4c-.4.3-.7.7-.9 1.2-.3.5-.4 1.1-.4 1.8z" class="st6"/><path d="M-47.8 722l.2-.6-3.2-8c-.2-.5-.3-.8-.3-1 0-.2.1-.4.2-.6.1-.2.3-.3.5-.5.2-.1.4-.2.6-.2.4 0 .7.1.8.4.2.2.4.6.5 1l2.2 6.4 2.1-5.9c.2-.5.3-.9.4-1.1.1-.3.3-.5.4-.5.1-.1.4-.1.6-.1.2 0 .4.1.6.2.2.1.3.2.4.4.1.2.1.4.1.6 0 .1-.1.3-.1.5-.1.2-.1.4-.2.7l-3.4 8.9c-.3.8-.6 1.4-.9 1.8-.3.4-.6.8-1.1 1-.5.2-1.1.4-1.9.4-.8 0-1.3-.1-1.7-.2-.4-.2-.6-.5-.6-.9 0-.3.1-.5.3-.7.2-.2.4-.2.8-.2.1 0 .3 0 .4.1.2 0 .3.1.4.1.3 0 .5 0 .7-.1.2-.1.3-.2.5-.5.4-.7.5-1 .7-1.4zm37.6-10.7h.6v-.8c0-.8.1-1.5.3-1.9.2-.5.6-.8 1-1 .5-.2 1.2-.3 2-.3 1.5 0 2.3.4 2.3 1.1 0 .2-.1.4-.2.6-.2.2-.3.3-.6.3-.1 0-.3 0-.5-.1-.2 0-.5-.1-.6-.1-.5 0-.8.1-.9.4-.1.3-.2.7-.2 1.2v.6h.6c1 0 1.5.3 1.5.9 0 .4-.1.7-.4.8-.3.1-.6.2-1.1.2H-7v6.9c0 .5-.1.9-.4 1.2-.2.3-.6.4-.9.4-.4 0-.7-.1-.9-.4-.2-.3-.4-.7-.4-1.2v-6.9h-.7c-.4 0-.7-.1-.9-.3-.2-.2-.3-.4-.3-.7 0-.6.4-.9 1.3-.9m8.4 6.6v2.2c0 .5-.1.9-.4 1.2-.2.3-.6.4-.9.4-.4 0-.7-.1-.9-.4-.2-.3-.4-.7-.4-1.2v-7.2c0-1.2.4-1.7 1.3-1.7.4 0 .7.1.9.4.2.3.3.7.3 1.2.3-.5.6-.9.9-1.2.3-.3.8-.4 1.3-.4s1.1.1 1.6.4c.5.3.8.6.8 1.1 0 .3-.1.6-.3.8-.2.2-.5.3-.7.3-.1 0-.3-.1-.7-.2-.4-.1-.7-.2-1-.2-.4 0-.7.1-.9.3-.2.2-.4.5-.6.9-.1.4-.2.9-.3 1.4.1.4 0 1.1 0 1.9m12-.9H5.1c0 .6.1 1.1.4 1.6.2.4.5.8.9 1 .4.2.8.3 1.3.3.3 0 .6 0 .8-.1.3-.1.5-.2.7-.3.2-.2.5-.3.7-.5.2-.2.5-.4.8-.7.1-.1.3-.2.6-.2s.5.1.6.2c.2.1.2.4.2.6 0 .2-.1.5-.3.8-.2.3-.5.6-.8.9-.4.3-.8.5-1.4.7-.6.2-1.2.3-1.9.3-1.7 0-3-.5-3.9-1.4-.9-1-1.4-2.2-1.4-3.9 0-.8.1-1.5.3-2.1.2-.7.6-1.2 1-1.7s1-.8 1.6-1.1c.6-.2 1.3-.4 2.1-.4 1 0 1.9.2 2.6.6.7.4 1.3 1 1.6 1.7.4.7.5 1.4.5 2.1 0 .6-.2 1.1-.6 1.3-.1.2-.7.3-1.3.3m-5.1-1.5h4.7c-.1-.9-.3-1.5-.7-2-.4-.4-1-.7-1.6-.7-.6 0-1.2.2-1.6.7-.5.5-.7 1.1-.8 2M21 717h-5.1c0 .6.1 1.1.4 1.6.2.4.5.8.9 1 .4.2.8.3 1.3.3.3 0 .6 0 .8-.1.3-.1.5-.2.8-.3.2-.2.5-.3.7-.5.2-.2.5-.4.8-.7.1-.1.3-.2.6-.2s.5.1.7.2c.2.1.2.4.2.6 0 .2-.1.5-.3.8-.2.3-.5.6-.8.9-.4.3-.8.5-1.4.7-.6.2-1.2.3-1.9.3-1.7 0-3-.5-3.9-1.4-.9-1-1.4-2.2-1.4-3.9 0-.8.1-1.5.3-2.1.2-.7.6-1.2 1-1.7s1-.8 1.6-1.1c.6-.2 1.4-.4 2.1-.4 1 0 1.9.2 2.6.6.7.4 1.3 1 1.6 1.7.4.7.5 1.4.5 2.1 0 .6-.2 1.1-.6 1.3-.3.2-.9.3-1.5.3m-5.1-1.5h4.7c-.1-.9-.3-1.5-.7-2-.4-.4-1-.7-1.6-.7-.6 0-1.2.2-1.6.7-.5.5-.7 1.1-.8 2m10.7-3v.3c.5-.6 1-1 1.5-1.3.5-.3 1.1-.4 1.8-.4.8 0 1.5.2 2.2.6.7.4 1.2 1 1.6 1.8.4.8.6 1.7.6 2.8 0 .8-.1 1.5-.3 2.2-.2.7-.5 1.2-.9 1.7s-.9.8-1.4 1c-.5.2-1.1.4-1.7.4-.7 0-1.4-.1-1.9-.4-.5-.3-1-.7-1.4-1.3v3.9c0 1.1-.4 1.7-1.2 1.7-.5 0-.8-.1-1-.4-.2-.3-.2-.7-.2-1.3v-11.2c0-.5.1-.9.3-1.1.2-.2.5-.4.9-.4s.7.1.9.4c.1.2.2.6.2 1m5.1 3.8c0-.7-.1-1.3-.3-1.8-.2-.5-.5-.9-.9-1.1-.4-.3-.8-.4-1.2-.4-.7 0-1.3.3-1.8.8-.5.6-.7 1.4-.7 2.5 0 1 .2 1.8.7 2.4.5.6 1.1.9 1.8.9.4 0 .8-.1 1.2-.4.4-.3.7-.6.9-1.1.2-.5.3-1.1.3-1.8m5.2-6.4c-.4 0-.7-.1-.9-.3-.3-.2-.4-.5-.4-.9s.1-.7.4-.9c.3-.2.6-.4.9-.4.3 0 .6.1.9.3.3.2.4.5.4.9s-.1.7-.4.9c-.2.3-.5.4-.9.4m1.3 2.7v7.5c0 .5-.1.9-.4 1.2-.3.3-.6.4-.9.4-.4 0-.7-.1-.9-.4-.2-.3-.4-.7-.4-1.2v-7.4c0-.5.1-.9.4-1.2.2-.3.5-.4.9-.4s.7.1.9.4c.3.2.4.6.4 1.1m8.4 7.8l-2.3-3.8-1.4 1.3v2.1c0 .5-.1.9-.4 1.1-.3.3-.6.4-.9.4-.4 0-.7-.1-.9-.4-.2-.3-.3-.7-.3-1.2V709c0-.6.1-1 .3-1.3.2-.3.5-.5 1-.5.4 0 .7.1.9.4.2.3.4.7.4 1.2v6.3l2.9-3.1.8-.8c.2-.1.4-.2.7-.2.3 0 .6.1.8.3.2.2.3.5.3.8 0 .4-.4.9-1.1 1.5l-1.4 1.3 2.7 4.2c.2.3.3.5.4.7.1.2.1.3.1.5 0 .4-.1.7-.3 1-.2.2-.5.4-.9.4-.3 0-.6-.1-.7-.3-.2-.2-.4-.5-.7-1m5.6 1.2c-.4 0-.7-.1-1-.4-.3-.2-.4-.6-.4-1.1 0-.4.1-.7.4-1 .3-.3.6-.4 1-.4s.7.1 1 .4c.3.3.4.6.4 1 0 .5-.1.8-.4 1.1-.3.3-.6.4-1 .4m12.9-3.2c0 .3-.1.7-.3 1-.2.4-.5.7-.9 1-.4.3-.9.6-1.5.8-.6.2-1.3.3-2 .3-1.6 0-2.9-.5-3.8-1.4-.9-.9-1.3-2.2-1.3-3.8 0-1.1.2-2 .6-2.8.4-.8 1-1.4 1.8-1.9.8-.4 1.7-.7 2.8-.7.7 0 1.3.1 1.9.3.6.2 1 .5 1.4.8.4.3.7.6.9 1 .2.4.3.7.3 1 0 .3-.1.6-.3.8-.2.2-.5.3-.8.3-.2 0-.4-.1-.5-.2l-.5-.5c-.3-.5-.6-.8-1-1.1-.3-.2-.8-.4-1.3-.4-.8 0-1.4.3-1.9.9-.5.6-.7 1.4-.7 2.5 0 .5.1.9.2 1.3s.3.8.5 1c.2.3.5.5.8.7.3.2.7.2 1.1.2.5 0 1-.1 1.3-.4.4-.2.7-.6 1-1.1.2-.3.3-.5.5-.7.2-.2.4-.2.7-.2.3 0 .6.1.8.4.1.4.2.6.2.9m11.2-2c0 .8-.1 1.5-.4 2.1-.2.7-.6 1.2-1 1.7-.5.5-1 .8-1.6 1.1-.6.2-1.3.4-2.1.4s-1.5-.1-2.1-.4c-.6-.2-1.2-.6-1.6-1.1-.5-.5-.8-1-1.1-1.7-.2-.6-.4-1.4-.4-2.1 0-.8.1-1.5.4-2.2.2-.7.6-1.2 1-1.7.5-.5 1-.8 1.6-1.1.6-.2 1.3-.4 2.1-.4s1.5.1 2.1.4c.6.3 1.2.6 1.6 1.1.5.5.8 1 1 1.7.4.7.5 1.4.5 2.2m-2.6 0c0-1.1-.2-1.9-.7-2.5-.5-.6-1.1-.9-1.9-.9-.5 0-1 .1-1.3.4-.4.3-.7.6-.9 1.2-.2.5-.3 1.1-.3 1.8s.1 1.3.3 1.8c.2.5.5.9.9 1.2.4.3.8.4 1.4.4.8 0 1.4-.3 1.9-.9.4-.7.6-1.5.6-2.5m12.5.1v3.4c0 .5-.1 1-.4 1.2-.3.3-.6.4-1 .4s-.7-.1-1-.4c-.2-.3-.4-.7-.4-1.2v-4.1c0-.7 0-1.2-.1-1.5 0-.4-.2-.7-.4-.9-.2-.2-.5-.4-.9-.4-.9 0-1.4.3-1.7.9-.3.6-.4 1.4-.4 2.5v3.5c0 .5-.1.9-.4 1.2-.2.3-.6.4-1 .4s-.7-.1-1-.4c-.3-.3-.4-.7-.4-1.2v-7.4c0-.5.1-.9.3-1.1.2-.3.5-.4.9-.4s.7.1.9.4c.2.2.4.6.4 1v.2c.5-.5.9-.9 1.4-1.2.5-.3 1.1-.4 1.7-.4.7 0 1.2.1 1.7.4.5.3.9.7 1.2 1.2.4-.5.9-.9 1.4-1.2.5-.3 1.1-.4 1.7-.4.7 0 1.3.1 1.8.4.5.3.9.7 1.1 1.2.2.5.3 1.2.3 2.2v5.1c0 .5-.1 1-.4 1.2-.2.3-.6.4-1 .4s-.7-.1-1-.4c-.3-.3-.4-.7-.4-1.2v-4.4c0-.6 0-1-.1-1.3 0-.3-.2-.6-.4-.8-.2-.2-.5-.3-1-.3-.3 0-.7.1-1 .3-.3.2-.5.5-.7.8.4.5.3 1.2.3 2.3m-120.7-.8zm.1.9c0-.2-.1-.5-.1-.7 0 .2.1.4.1.7zm.9 2.4s0-.1 0 0c0-.1 0 0 0 0zm-.1-.2s0-.1-.1-.1c.1 0 .1.1.1.1zm-.5-1.3c.1.4.3.8.5 1.2-.3-.4-.4-.8-.5-1.2zm9.6-11.7c.5 0 .9 0 1.3.1l.1-.8s-1.2-.4-2.7-.2l-.1-.4c.5-.1.8-.5.8-1 0-.6-.5-1.1-1.1-1.1s-1.1.5-1.1 1.1c0 .5.4.9.8 1l.1.5c-1.6.2-2.9.9-2.9.9l.2.7c1-.3 1.8-.5 2.6-.6 1-.2 1.6-.2 2-.2zm-9 3.9c0-.1.1-.1.1-.2l-.3-.2-.5-.4s-.8.7-1.4 2l-.1-.1c-.2-.2-.4-.3-.8-.3-.2 0-.3-.1-.4-.1.1-.1.1-.3.1-.4 0-.4-.3-.7-.7-.7-.4 0-.7.3-.7.7 0 .4.3.7.7.7h.2c.2.2.4.3.8.3.2 0 .3 0 .4.2.1.1.1.3.2.4-.4 1.2-.3 2.7-.3 2.7h1.1c0-.5.1-1.5.4-2.2.5-1.5 1.1-2.4 1.2-2.4zm18.2-3c-.4 0-.7.3-.7.7v.2c-.2.2-.3.4-.3.8 0 .2 0 .3-.2.4-.1.1-.2.1-.3.1-.8-1.1-1.8-1.8-1.8-1.8l-.8.8c.6.5 1.2 1.2 1.7 2 .4.6.8 1.3 1.1 2l1-.5s-.5-1.2-1.1-2.2c.1 0 .2-.1.3-.2.2-.2.3-.4.3-.8 0-.2.1-.3.1-.4.1.1.3.1.4.1.4 0 .7-.3.7-.7.3-.2 0-.5-.4-.5z" class="st6"/><path d="M-17.9 715.9c-1.4.7-3.7 1.6-6.8 2-1.2.2-2.4.2-3.4.2-1.4 0-2.6-.1-3.6-.2-1.1-.1-1.9-.3-2.4-.4.1.4.3.8.5 1.2 0 0 0 .1.1.1 0 0 0 .1.1.1.3.6.7 1.1 1.1 1.5 1.4 1.6 2.9 1.8 2.9 1.8s1.3.4 3.3.4c1.9 0 3.9-.4 5.7-1.2 1.3-.7 2.6-1.7 3.3-2.7.5-.7.8-1.5 1-2.3.1-.4.2-1.1.1-1.8-.5.5-1.1.9-1.9 1.3z" class="st6"/><path d="M-33.1 710c0 .1-.7.9-1.1 2.3-.4 1-.3 2.4-.3 2.5 0 .3 0 .7.1 1v.1c0 .2.1.5.1.7.7.2 4.9 1.2 9.5.5 2.9-.4 5.1-1.3 6.5-1.9 1.1-.5 1.8-1 2.1-1.2-.3-1-1-2.6-1.7-3.6-2-2.9-4.2-3.6-5.3-3.8-.4-.1-.8-.1-1.2-.1-.4 0-1 0-1.7.1s-1.6.3-2.5.6c-1.3.5-2.6 1.2-3.5 2-.3.1-.6.4-1 .8zm12.3-.7c1 0 1.7.8 1.7 1.7 0 1-.8 1.7-1.7 1.7-1 0-1.7-.8-1.7-1.7-.1-.9.7-1.7 1.7-1.7zm-8.3 0c1.6 0 2.8 1.3 2.8 2.8 0 1.6-1.3 2.8-2.8 2.8-1.6 0-2.8-1.3-2.8-2.8 0-1.6 1.3-2.8 2.8-2.8z" class="st6"/></g></g><path id="Objects" d="M50.1 95.9c-9.1 0-18-1.8-25.8-5.1C3.5 82-5.5 58.6 3.4 36.5c1.3-3.3 3-6.5 5.1-9.4h-.3c-1.1 0-2.1-.9-2.4-2.1-.2-1.2.3-2.2 1.3-2.6 2.8-1.3 5.7-2.4 8.4-3.5C26 8.7 41.2 1.9 57.4 0h.3c1.1 0 2 .9 2.1 2.1.1 1.2-.6 2.3-1.7 2.6-9.2 2-17.3 4.7-24.3 8.2 7.1-1.8 13.7-2.6 19.8-2.6 13.5 0 24.6 4.4 33.2 12.9C102.5 38.9 103 65 87.9 81.4c-8.6 9.3-22.1 14.5-37.8 14.5zM18.9 23.1c-6 5.8-10.1 12.7-12 20.5C4.4 53.7 5.6 64 10.5 71.8c5.8 9.4 15.7 13.6 23 15.5 5.4 1.4 10.9 2.1 16.4 2.1 16.9 0 30.7-6.7 37.8-18.3 5.1-8.3 6.4-18.5 3.7-28-2.8-9.7-9.4-17.8-18.2-22.3-6.4-3.2-13.3-4.8-21.1-4.8-12.1.1-24.1 3.8-33.2 7.1z" class="st7"/></svg>