<svg xmlns="http://www.w3.org/2000/svg" id="Layer_1" viewBox="686.2 407.6 30 28.2"><style>.st0{fill:#fff}</style><path d="M716.2 428.3s-.1-.3-.3-.6l-4.4-8.8c-.2-.3-.6-.6-1-.6h-3.6c-.4 0-.7.3-.7.7v1.2c0 .4.3.7.7.7h1.2c.4 0 .8.3 1 .6l3.1 6.3c.2.3 0 .6-.4.6h-4.9c-.4 0-.7.3-.7.7v3.6c0 .4-.3.7-.7.7h-8.6c-.4 0-.7-.3-.7-.7V429c0-.4-.3-.7-.7-.7h-5c-.4 0-.5-.3-.4-.6l3.2-6.3c.2-.3.6-.6 1-.6h1.1c.4 0 .7-.3.7-.7V419c0-.4-.3-.7-.7-.7h-3.6c-.4 0-.8.3-1 .6l-4.4 8.8c-.2.3-.3.6-.3.6v6.9c0 .4.3.7.7.7h28.6c.4 0 .7-.3.7-.7V429c.1-.4.1-.7.1-.7zm-21.2-13h3.7v10.5h5v-10.5h3.9c.4 0 .5-.2.2-.5l-6.2-7c-.2-.3-.7-.3-.9 0l-6 7c-.2.3-.1.5.3.5z" class="st0"/></svg>